# xmcd
#
# Track frame offsets:
#	150
#	19677
#	37717
#	49855
#	67412
#	84902
#	97880
#	112705
#	128355
#	141902
#	158405
#	174855
#	196427
#	209545
#	229015
#
# Disc length: 3199 seconds
#
# Revision: 2
# Processed by: cddbd v1.4PL0 Copyright (c) Steve Scherf et al.
# Submitted via: audiograbber 1.81.03
#
DISCID=b30c7d0f
DTITLE=Tiger City Jukes - White Line Fever
DYEAR=1997
DGENRE=Blues
TTITLE0=Talkin' bout you
TTITLE1=All Good Things
TTITLE2=Please Stop You're Crying
TTITLE3=Little Red Rooster
TTITLE4=Unfortunately Yours
TTITLE5=White Line Fever
TTITLE6=Tomcat
TTITLE7=I've Bought My Ticket
TTITLE8=Hot Spot
TTITLE9=Little Queen Of Spades
TTITLE10=Hideout Hotel
TTITLE11=My Love Will Never Die
TTITLE12=Mine All Mine
TTITLE13=Look On Yonder Wall
TTITLE14=Southern Women
EXTD=Published on Blue Mood Records Oslo Norway
EXTT0=
EXTT1=
EXTT2=
EXTT3=
EXTT4=
EXTT5=
EXTT6=
EXTT7=
EXTT8=
EXTT9=
EXTT10=
EXTT11=
EXTT12=
EXTT13=
EXTT14=
PLAYORDER=
